PathFileType	4	(X/Y/Z)	/Users/itak/Documents/Research/Walk-IL/dataset/trc/00403_00012.trc
DataRate	CameraRate	NumFrames	NumMarkers	Units	OrigDataRate	OrigDataStartFrame	OrigNumFrames
100.000000	100.000000	4	53	mm	100.000000	141	566
Frame#	Time	RPSI			LPSI			L3			STRN			T10			C7			CLAV			RBAK			LBAK			LSHO			LUPA			LAEL			LAOL			LWTS			LWPS			LFRA			LHPS			LHTS			RSHO			RUPA			RAEL			RAOL			RWTS			RWPS			RFRA			RIFD			RHTS			RHPS			RBHD			LFHD			RFHD			LBHD			LHIP			RHIP			RASI			LASI			LKNE			LTHI			LANK			LTIP			LTOE			LMT1			LMT5			LHEE			RKNE			RTHI			RANK			RTIP			RTOE			RMT1			RMT5			RHEE			LIFD			
		X1	Y1	Z1	X2	Y2	Z2	X3	Y3	Z3	X4	Y4	Z4	X5	Y5	Z5	X6	Y6	Z6	X7	Y7	Z7	X8	Y8	Z8	X9	Y9	Z9	X10	Y10	Z10	X11	Y11	Z11	X12	Y12	Z12	X13	Y13	Z13	X14	Y14	Z14	X15	Y15	Z15	X16	Y16	Z16	X17	Y17	Z17	X18	Y18	Z18	X19	Y19	Z19	X20	Y20	Z20	X21	Y21	Z21	X22	Y22	Z22	X23	Y23	Z23	X24	Y24	Z24	X25	Y25	Z25	X26	Y26	Z26	X27	Y27	Z27	X28	Y28	Z28	X29	Y29	Z29	X30	Y30	Z30	X31	Y31	Z31	X32	Y32	Z32	X33	Y33	Z33	X34	Y34	Z34	X35	Y35	Z35	X36	Y36	Z36	X37	Y37	Z37	X38	Y38	Z38	X39	Y39	Z39	X40	Y40	Z40	X41	Y41	Z41	X42	Y42	Z42	X43	Y43	Z43	X44	Y44	Z44	X45	Y45	Z45	X46	Y46	Z46	X47	Y47	Z47	X48	Y48	Z48	X49	Y49	Z49	X50	Y50	Z50	X51	Y51	Z51	X52	Y52	Z52	X53	Y53	Z53	

142	1.41	-417.1585083007812	938.353515625	886.8359375	-521.869384765625	930.5736083984375	969.1506958007812	-458.3572998046875	1011.161987304688	925.8169555664062	-584.3812866210938	1169.244750976562	723.22607421875	-449.5972595214844	1116.663452148438	938.1669311523438	-472.4893188476562	1365.03515625	900.87158203125	-552.2542114257812	1287.79052734375	767.1221923828125	-394.349609375	1217.617065429688	903.6224365234375	-552.5077514648438	1331.585571289062	967.1615600585938	-640.2323608398438	1350.712524414062	923.3326416015625	-680.6917114257812	1241.650390625	994.2639770507812	-707.2900390625	1048.548095703125	1025.147827148438	-624.290771484375	1025.298217773438	1026.407958984375	-715.600341796875	813.685302734375	979.6422119140625	-737.9623413085938	822.858154296875	1058.768798828125	-720.8287963867188	945.6590576171875	1041.752197265625	-722.4756469726562	736.2836303710938	1071.223754882812	-719.8631591796875	716.0338745117188	1010.566101074219	-369.297607421875	1342.811767578125	770.5860595703125	-313.0477905273438	1276.05029296875	752.1526489257812	-286.5059814453125	1015.605407714844	701.9746704101562	-357.927978515625	998.5716552734375	764.5947265625	-418.7079162597656	895.9718627929688	529.8710327148438	-351.89208984375	862.41650390625	526.1371459960938	-297.6626586914062	967.4266967773438	652.7268676757812	-462.3955078125	754.3040771484375	437.8180541992188	-437.4345092773438	821.5198364257812	454.133056640625	-380.5997314453125	791.7335205078125	478.8073425292969	-413.2997131347656	1542.822387695312	838.8259887695312	-598.0991821289062	1566.376586914062	767.1148681640625	-482.9413146972656	1562.907836914062	725.1726684570312	-557.9631958007812	1544.27197265625	909.91552734375	-665.1454467773438	933.744873046875	958.8458862304688	-372.4356994628906	908.41357421875	753.4293212890625	-491.9295349121094	916.5079956054688	671.7877197265625	-693.1112670898438	936.3915405273438	840.6409301757812	-807.4625854492188	489.7087097167969	780.24560546875	-769.9898681640625	612.5535888671875	838.1107788085938	-886.2111206054688	42.23743057250977	709.01953125	-858.5984497070312	260.9711608886719	752.6358642578125	-888.1283569335938	124.7138366699219	510.0878601074219	-837.0538940429688	88.86865997314453	562.8858642578125	-936.5025634765625	82.51461029052734	600.8236083984375	-821.72900390625	26.30287170410156	723.1722412109375	-428.4226989746094	430.8303833007812	844.0555419921875	-430.1121520996094	674.61474609375	732.0181274414062	-348.1646423339844	66.08107757568359	1043.576171875	-434.6059265136719	308.7971801757812	895.2069091796875	-534.2241821289062	39.92330169677734	1009.971130371094	-484.0067138671875	52.14479827880859	1071.572631835938	-416.7859802246094	50.2978630065918	997.4524536132812	-314.139404296875	76.67227935791016	1129.2978515625	-679.3777465820312	647.2704467773438	1043.3505859375	
143	1.42	-426.027099609375	937.7130126953125	879.111328125	-531.604736328125	930.187744140625	960.4935302734375	-467.617431640625	1009.916137695312	917.6277465820312	-591.0233764648438	1168.7744140625	714.5445556640625	-458.6458129882812	1115.397705078125	930.7166137695312	-480.841796875	1364.001342773438	894.1597290039062	-559.0460205078125	1287.1630859375	759.0586547851562	-403.3041076660156	1216.152954101562	897.3953857421875	-561.74658203125	1330.610107421875	959.3204956054688	-648.8261108398438	1350.132202148438	914.3867797851562	-690.28515625	1241.220581054688	984.9774780273438	-717.5045776367188	1048.11474609375	1015.4140625	-634.481201171875	1024.895141601562	1018.576232910156	-723.7620849609375	812.8966064453125	970.6205444335938	-748.9125366210938	822.8121948242188	1048.933227539062	-731.3385620117188	945.2755126953125	1031.962646484375	-733.0422973632812	736.29345703125	1062.687255859375	-727.9984130859375	715.28173828125	1002.313842773438	-375.8861999511719	1341.70849609375	765.3267211914062	-319.4542846679688	1274.853271484375	747.8646240234375	-292.3421936035156	1014.295715332031	698.9934692382812	-365.104736328125	997.49658203125	760.1527099609375	-421.1671142578125	893.4143676757812	524.9581909179688	-354.1546630859375	859.9288330078125	522.8104248046875	-302.5347900390625	965.7807006835938	649.6741943359375	-462.5099487304688	751.0526733398438	432.9909973144531	-438.0177612304688	818.4141845703125	449.3960571289062	-381.8464660644531	788.8908081054688	475.36669921875	-420.3334655761719	1541.996215820312	832.8411254882812	-603.9889526367188	1565.69140625	758.33056640625	-488.1753845214844	1561.891723632812	718.1259155273438	-566.0516357421875	1543.9091796875	901.7692260742188	-674.9100341796875	933.6235961914062	948.9213256835938	-379.9757690429688	907.43017578125	746.2122802734375	-498.8407592773438	915.5737915039062	663.25146484375	-701.5449829101562	936.2789306640625	830.3341064453125	-814.0382080078125	489.7022094726562	766.0109252929688	-777.7849731445312	612.0942993164062	825.4232177734375	-888.2793579101562	41.25889205932617	704.0101318359375	-862.9239501953125	260.138427734375	741.8674926757812	-885.8023681640625	116.8884582519531	502.4940185546875	-835.618408203125	83.37442779541016	557.7342529296875	-935.9234008789062	77.29318237304688	593.4063720703125	-823.9462890625	26.62869644165039	720.0804443359375	-435.5872802734375	430.2929992675781	837.90234375	-437.287353515625	673.5888061523438	725.1497192382812	-349.0364074707031	68.89356231689453	1042.690063476562	-439.614990234375	308.5589599609375	890.2212524414062	-534.2218017578125	39.93544387817383	1009.987121582031	-484.5739440917969	53.45285797119141	1070.710693359375	-417.2047729492188	50.31856536865234	996.7948608398438	-315.7191467285156	82.39828491210938	1128.23095703125	-687.6582641601562	647.53857421875	1037.384765625	
144	1.43	-434.9715270996094	937.3777465820312	871.162841796875	-541.4247436523438	930.152587890625	951.6075439453125	-477.0154418945312	1008.955200195312	909.1446533203125	-597.7640380859375	1168.655151367188	705.784423828125	-467.6347045898438	1114.397827148438	923.102783203125	-489.1803588867188	1363.234375	887.3318481445312	-565.8839111328125	1286.86572265625	750.9132690429688	-412.2744445800781	1214.95703125	890.9749755859375	-570.8353271484375	1329.887817382812	951.4014892578125	-657.3175659179688	1349.87939453125	905.4179077148438	-699.79736328125	1241.09228515625	975.6183471679688	-727.7281494140625	1047.949829101562	1005.492614746094	-644.7064208984375	1024.725463867188	1010.443481445312	-732.374267578125	812.4883422851562	961.1259765625	-759.9802856445312	822.9947509765625	1038.631225585938	-741.9146728515625	945.1406860351562	1021.880065917969	-744.1827392578125	736.5265502929688	1053.438842773438	-737.119873046875	714.9459838867188	993.3953247070312	-382.5483703613281	1340.8720703125	759.894775390625	-325.9518432617188	1273.940673828125	743.380615234375	-298.2350769042969	1013.249450683594	696.0138549804688	-372.3312683105469	996.720947265625	755.6724853515625	-423.4541015625	890.582763671875	520.3468017578125	-356.2413635253906	857.2513427734375	519.8932495117188	-307.419921875	964.297607421875	646.7120361328125	-462.2091674804688	747.29931640625	428.7855834960938	-438.3160095214844	814.8678588867188	445.1334228515625	-382.7588806152344	785.7490844726562	472.4893188476562	-427.3460083007812	1541.433471679688	826.7659301757812	-609.8076782226562	1565.323486328125	749.4471435546875	-493.3677368164062	1561.1455078125	711.0087280273438	-574.0950927734375	1543.867797851562	893.4942016601562	-684.7423095703125	933.7793579101562	938.77294921875	-387.5535583496094	906.7540283203125	738.7935791015625	-505.8066101074219	914.9361572265625	654.5281982421875	-710.0639038085938	936.4813232421875	819.8279418945312	-820.3652954101562	489.9061584472656	751.7645263671875	-785.328857421875	611.77001953125	812.7105102539062	-889.8502197265625	40.46110916137695	700.3663330078125	-866.9683227539062	259.4430236816406	731.649169921875	-883.7567138671875	108.335319519043	496.0395202636719	-834.2549438476562	77.59682464599609	553.6935424804688	-935.2079467773438	71.71658325195312	587.4608154296875	-825.6688232421875	27.29438972473145	718.1276245117188	-443.0843200683594	429.8941955566406	830.9419555664062	-444.6684265136719	672.81982421875	717.8643798828125	-350.0814208984375	72.08351898193359	1041.380493164062	-444.7348937988281	308.55712890625	884.4716186523438	-534.1268920898438	39.97914505004883	1010.076171875	-485.1994934082031	54.95858383178711	1069.593627929688	-417.6614685058594	50.18207550048828	996.0057373046875	-317.6477355957031	88.90227508544922	1126.526489257812	-697.3988037109375	647.884033203125	1030.423095703125	
145	1.44	-443.9498596191406	937.3214721679688	863.0284423828125	-551.2896728515625	930.4609375	942.519775390625	-486.5206604003906	1008.300109863281	900.399169921875	-604.5719604492188	1168.900634765625	696.9454345703125	-476.5683898925781	1113.677124023438	915.3425903320312	-497.5042724609375	1362.747924804688	880.3947143554688	-572.754150390625	1286.912963867188	742.6959838867188	-421.2415466308594	1214.051147460938	884.3812866210938	-579.7948608398438	1329.438232421875	943.4005737304688	-665.7140502929688	1349.972412109375	896.4108276367188	-709.2523803710938	1241.28076171875	966.1611938476562	-737.9560546875	1048.073608398438	995.3679809570312	-654.9651489257812	1024.806884765625	1001.960693359375	-741.4241943359375	812.466552734375	951.1289672851562	-771.1251220703125	823.4163818359375	1027.87109375	-752.5419311523438	945.2808837890625	1011.491638183594	-755.849609375	736.9984130859375	1043.470581054688	-747.1856079101562	715.0281982421875	983.7620849609375	-389.2715759277344	1340.324462890625	754.305908203125	-332.5233154296875	1273.337524414062	738.7118530273438	-304.19677734375	1012.493713378906	693.0315551757812	-379.6096801757812	996.2725219726562	751.1487426757812	-425.585205078125	887.5112915039062	516.054931640625	-358.1726379394531	854.431884765625	517.4097290039062	-312.3319702148438	963.01123046875	643.8484497070312	-461.5021362304688	743.08837890625	425.23876953125	-438.3406066894531	810.9226684570312	441.3786010742188	-383.3462524414062	782.3627319335938	470.2099914550781	-434.3335571289062	1541.14501953125	820.598876953125	-615.5475463867188	1565.2783203125	740.4619750976562	-498.5152893066406	1560.673583984375	703.8219604492188	-582.0845336914062	1544.15771484375	885.0924682617188	-694.595947265625	934.233642578125	928.401611328125	-395.113037109375	906.373291015625	731.2145385742188	-512.7577514648438	914.6096801757812	645.6639404296875	-718.6142578125	937.0068969726562	809.1199951171875	-826.4810791015625	490.2845764160156	737.707275390625	-792.6560668945312	611.6229858398438	800.0706176757812	-891.0782470703125	39.89956665039062	697.741943359375	-870.8365478515625	258.9124450683594	721.9624633789062	-882.1156005859375	99.49883270263672	490.5154724121094	-833.1095581054688	71.87057495117188	550.486083984375	-934.5272827148438	66.10558319091797	582.713134765625	-827.0499877929688	28.27446174621582	716.9437866210938	-450.9107666015625	429.6156005859375	823.063720703125	-452.2303771972656	672.3055419921875	710.1348876953125	-351.3546447753906	75.67793273925781	1039.6015625	-449.9634094238281	308.8028564453125	877.850341796875	-533.9378051757812	40.04687881469727	1010.225524902344	-485.9256896972656	56.66593170166016	1068.163330078125	-418.16357421875	49.89065170288086	995.1044921875	-320.0516967773438	96.22572326660156	1124.094116210938	-708.5396118164062	648.279541015625	1022.387939453125	
